<svg viewBox="0 0 1180 760" role="img" aria-labelledby="f12c11-title f12c11-desc" xmlns="http://www.w3.org/2000/svg">
  <title id="f12c11-title">Gate multimodal de privacidad y seguridad</title>
  <desc id="f12c11-desc">Pipeline de clasificación, controles, gate e informe para riesgos multimodales.</desc>
  <defs>
    <marker id="f12c11-arrow" markerWidth="10" markerHeight="10" refX="8" refY="3" orient="auto" markerUnits="strokeWidth">
      <path d="M0,0 L0,6 L9,3 z" fill="#111111"/>
    </marker>
  </defs>
  <rect width="1180" height="760" fill="#FFFFFF"/>
  <text x="64" y="58" font-size="28" font-weight="700" fill="#111111">Privacidad, seguridad y operación multimodal</text>
  <text x="64" y="88" font-size="15" fill="#555555">La entrada multimodal se clasifica, se redacta, se gobierna por destino y se decide con un gate.</text>
  <rect x="66" y="150" width="178" height="260" fill="#FFFFFF" stroke="#111111" stroke-width="1.3"/><text x="155" y="184" text-anchor="middle" font-size="14" font-weight="700" fill="#111111">Entrada</text><text x="155" y="230" text-anchor="middle" font-size="11" fill="#555555">documento</text><text x="155" y="260" text-anchor="middle" font-size="11" fill="#555555">imagen</text><text x="155" y="290" text-anchor="middle" font-size="11" fill="#555555">audio</text><text x="155" y="320" text-anchor="middle" font-size="11" fill="#555555">vídeo</text><text x="155" y="350" text-anchor="middle" font-size="11" fill="#555555">pantalla</text><line x1="244" y1="280" x2="282" y2="280" stroke="#111111" stroke-width="1.5" marker-end="url(#f12c11-arrow)"/><rect x="284" y="150" width="178" height="260" fill="#F7F7F7" stroke="#111111" stroke-width="1.3"/><text x="373" y="184" text-anchor="middle" font-size="14" font-weight="700" fill="#111111">Clasificación</text><text x="373" y="230" text-anchor="middle" font-size="11" fill="#555555">PII</text><text x="373" y="260" text-anchor="middle" font-size="11" fill="#555555">secretos</text><text x="373" y="290" text-anchor="middle" font-size="11" fill="#555555">OCR no confiable</text><line x1="462" y1="280" x2="500" y2="280" stroke="#111111" stroke-width="1.5" marker-end="url(#f12c11-arrow)"/><rect x="502" y="150" width="178" height="260" fill="#FFFFFF" stroke="#111111" stroke-width="1.3"/><text x="591" y="184" text-anchor="middle" font-size="14" font-weight="700" fill="#111111">Controles</text><text x="591" y="230" text-anchor="middle" font-size="11" fill="#555555">redacción</text><text x="591" y="260" text-anchor="middle" font-size="11" fill="#555555">retención</text><text x="591" y="290" text-anchor="middle" font-size="11" fill="#555555">ACL</text><text x="591" y="320" text-anchor="middle" font-size="11" fill="#555555">egress</text><line x1="680" y1="280" x2="718" y2="280" stroke="#111111" stroke-width="1.5" marker-end="url(#f12c11-arrow)"/><rect x="720" y="150" width="178" height="260" fill="#F7F7F7" stroke="#111111" stroke-width="1.3"/><text x="809" y="184" text-anchor="middle" font-size="14" font-weight="700" fill="#111111">Gate</text><text x="809" y="230" text-anchor="middle" font-size="11" fill="#555555">pass</text><text x="809" y="260" text-anchor="middle" font-size="11" fill="#555555">review</text><text x="809" y="290" text-anchor="middle" font-size="11" fill="#555555">block</text><line x1="898" y1="280" x2="936" y2="280" stroke="#111111" stroke-width="1.5" marker-end="url(#f12c11-arrow)"/><rect x="938" y="150" width="178" height="260" fill="#FFFFFF" stroke="#111111" stroke-width="1.3"/><text x="1027" y="184" text-anchor="middle" font-size="14" font-weight="700" fill="#111111">Evidencia</text><text x="1027" y="230" text-anchor="middle" font-size="11" fill="#555555">CSV</text><text x="1027" y="260" text-anchor="middle" font-size="11" fill="#555555">runbook</text><text x="1027" y="290" text-anchor="middle" font-size="11" fill="#555555">caso de regresión</text>
  <rect x="64" y="454" width="1052" height="218" fill="#FFFFFF" stroke="#111111" stroke-width="1.2"/>
  <text x="96" y="482" font-size="13" font-weight="700" fill="#111111">Top riesgos de la ejecución</text>
  <text x="96" y="511" font-size="11" fill="#111111">computer_use_external_submit</text><rect x="330" y="494" width="520" height="20" fill="#F3F3F3" stroke="#111111" stroke-width="0.8"/><rect x="330" y="494" width="398" height="20" fill="#111111"/><text x="870" y="510" font-size="11" fill="#111111">0.77 · block</text><text x="96" y="543" font-size="11" fill="#111111">ui_api_key_prompt_injection</text><rect x="330" y="526" width="520" height="20" fill="#F3F3F3" stroke="#111111" stroke-width="0.8"/><rect x="330" y="526" width="373" height="20" fill="#111111"/><text x="870" y="542" font-size="11" fill="#111111">0.72 · block</text><text x="96" y="575" font-size="11" fill="#111111">eval_reconstructible_token_fragment</text><rect x="330" y="558" width="520" height="20" fill="#F3F3F3" stroke="#111111" stroke-width="0.8"/><rect x="330" y="558" width="321" height="20" fill="#111111"/><text x="870" y="574" font-size="11" fill="#111111">0.62 · block</text><text x="96" y="607" font-size="11" fill="#111111">image_exif_location</text><rect x="330" y="590" width="520" height="20" fill="#F3F3F3" stroke="#111111" stroke-width="0.8"/><rect x="330" y="590" width="313" height="20" fill="#111111"/><text x="870" y="606" font-size="11" fill="#111111">0.60 · review</text><text x="96" y="639" font-size="11" fill="#111111">rag_confidential_slide</text><rect x="330" y="622" width="520" height="20" fill="#F3F3F3" stroke="#111111" stroke-width="0.8"/><rect x="330" y="622" width="308" height="20" fill="#111111"/><text x="870" y="638" font-size="11" fill="#111111">0.59 · block</text>
  <text x="96" y="704" font-size="13" font-weight="700" fill="#111111">Decisión global</text>
  <text x="224" y="704" font-size="13" fill="#111111">block_release · 4 bloqueos · 8 revisiones · riesgo medio 0.5018</text>
  <text x="1092" y="728" text-anchor="end" font-size="11" fill="#999999">IA para gente curiosa / Facsímil 12 / Capítulo 11 / 686f6c61</text>
</svg>
